<svg xmlns="http://www.w3.org/2000/svg" id="Calque_2" data-name="Calque 2" viewBox="51.09 49.1 111.48 117.96"><defs><style>.cls-1{fill:#fff;}</style></defs><path class="cls-1" d="M162.54,109.84v-.12l0-.19s0,0,0-.07L156,84.4l6.49-18.56a1.42,1.42,0,0,0,.08-.4v-.08a1.3,1.3,0,0,0-.06-.44v0l-4.57-14.82s0,0,0-.06,0-.11-.07-.17,0-.06,0-.09l-.06-.09a1.5,1.5,0,0,0-.2-.23l0,0a1.21,1.21,0,0,0-.3-.2l-.09,0a1.07,1.07,0,0,0-.27-.09l-.06,0h0a1.4,1.4,0,0,0-.35,0l-.1,0-.26.05-.12,0-.08,0L146.19,54a1.32,1.32,0,0,0-.25.16L122.16,72.65H91.47L67.69,54.16a1.32,1.32,0,0,0-.25-.16l-9.62-4.82-.09,0-.1,0a1.63,1.63,0,0,0-.3-.07h-.06a1.45,1.45,0,0,0-.36,0h0l-.05,0a1.4,1.4,0,0,0-.29.09l-.08,0a1.21,1.21,0,0,0-.3.2l0,0a1.64,1.64,0,0,0-.21.24.41.41,0,0,0-.05.09l-.06.09c0,.06-.05.12-.07.17s0,0,0,.06L51.15,64.9v0a1.61,1.61,0,0,0-.06.44v.08a1.42,1.42,0,0,0,.08.4L57.66,84.4l-6.53,25.06a.17.17,0,0,1,0,.07l0,.19v.12a1.34,1.34,0,0,0,0,.2s0,.07,0,.11h0s5.2,23.89,5.56,25.52c.16.73.51,2.26,27.8,18.2l7.6,9.21a1.54,1.54,0,0,0,.79.5l13.31,3.35a1.4,1.4,0,0,0,.57.13h.13a1.4,1.4,0,0,0,.57-.13l13.31-3.35a1.54,1.54,0,0,0,.79-.5l7.6-9.21c27.29-15.94,27.64-17.47,27.8-18.2.36-1.63,5.56-25.52,5.56-25.52h0s0-.08,0-.12A1.15,1.15,0,0,0,162.54,109.84Zm-46.89,34.95,9.55,7.51-9.35,3.8-6.77-4.52Zm7.6-25.89,5.57-5.61,7.06-.43-5.22,8.66-8.51,1.65Zm-1.94,7.49,10.58-2a1.49,1.49,0,0,0,1-.7l6.64-11,19-1.15L150,129l-22.95,12.27h-9.61Zm17.26-16.7h0l-10.49.63a1.48,1.48,0,0,0-1,.44l-2.35,2.37,7.42-28.65,21.05,1.28,5.92,22.68Zm14.79-26.92-17.32-1,22.24-13Zm-16.27-5.14,18.8-23.93,3.37,11ZM90,75.33a1.5,1.5,0,0,0,.93.32h31.72a1.49,1.49,0,0,0,.92-.32l24.06-18.71,3.5-1.76L129.85,82h0a2.33,2.33,0,0,0-.17.26.08.08,0,0,1,0,0l0,.12a.14.14,0,0,1,0,.06s0,0,0,.06h0L114.16,142l-7.34,7.59L99.47,142,84.05,82.54h0s0,0,0-.06a.14.14,0,0,1,0-.06.49.49,0,0,1,0-.11.08.08,0,0,1,0,0,2.33,2.33,0,0,0-.17-.26h0L62.47,54.86,66,56.62Zm1.46,47.84L83,121.52l-5.22-8.66,7.06.43,5.57,5.61ZM74.11,112.64l6.64,11a1.51,1.51,0,0,0,1,.7l10.58,2,3.86,14.89H86.57L63.62,129l-8.56-17.52ZM98,144.79l6.57,6.79-6.77,4.52-9.35-3.8Zm-37.71-62L55.35,68.7l22.24,13ZM57.74,53.7l18.8,23.93-22.17-13Zm2.67,32.07,21-1.28,7.43,28.65-2.36-2.37a1.48,1.48,0,0,0-1-.44l-10.49-.63h0l-20.57-1.24Zm-3.72,35.9,4.45,9.09a1.48,1.48,0,0,0,.64.67l23.7,12.67a1.5,1.5,0,0,0,.71.18h7.59l-8.44,6.63c-11.54-6.76-24.06-14.46-25.8-16.17Zm62.86,39.13L106.82,164,94.08,160.8l-3.68-4.46,7,2.84a1.51,1.51,0,0,0,1.4-.14l8-5.37,8,5.37a1.51,1.51,0,0,0,1.4.14l7-2.84Zm34.54-26.06c-1.74,1.71-14.26,9.41-25.8,16.17l-8.44-6.63h7.59a1.47,1.47,0,0,0,.71-.18l23.7-12.67a1.48,1.48,0,0,0,.64-.67l4.45-9.1Z"/></svg>