<?xml version="1.0" encoding="utf-8"?>
<!-- Generator: Adobe Illustrator 27.2.0, SVG Export Plug-In . SVG Version: 6.00 Build 0)  -->
<svg version="1.1" xmlns="http://www.w3.org/2000/svg" xmlns:xlink="http://www.w3.org/1999/xlink" x="0px" y="0px"
	 viewBox="0 0 560 215" enable-background="new 0 0 560 215" xml:space="preserve">
<g id="Calque_3" display="none">
	<rect y="0.3" display="inline" fill="#FFFFFF" width="560" height="215"/>
</g>
<g id="Calque_2">
	<path fill="#FFFFFF" d="M162.1,108.8c0,0,0-0.1,0-0.1c0-0.1,0-0.1,0-0.2c0,0,0,0,0-0.1L157.5,91l4.5-12.8c0-0.1,0.1-0.3,0.1-0.4
		c0,0,0-0.1,0-0.1c0-0.2,0-0.3-0.1-0.4c0,0,0,0,0,0L158.8,67c0,0,0,0,0-0.1c0-0.1,0-0.1-0.1-0.2c0,0,0-0.1-0.1-0.1
		c0,0,0-0.1-0.1-0.1c-0.1-0.1-0.1-0.2-0.2-0.2c0,0,0,0,0,0c-0.1-0.1-0.2-0.1-0.3-0.2c0,0-0.1,0-0.1,0c-0.1,0-0.2-0.1-0.3-0.1
		c0,0,0,0-0.1,0c0,0,0,0,0,0c-0.1,0-0.2,0-0.4,0c0,0-0.1,0-0.1,0c-0.1,0-0.2,0-0.3,0.1c0,0-0.1,0-0.1,0c0,0-0.1,0-0.1,0l-6.7,3.4
		c-0.1,0-0.2,0.1-0.2,0.2l-16.5,12.8h-10.5h-0.1h-10.5L95.8,69.6c-0.1-0.1-0.2-0.1-0.2-0.2l-6.7-3.4c0,0-0.1,0-0.1,0
		c0,0-0.1,0-0.1,0c-0.1,0-0.2-0.1-0.3-0.1c0,0,0,0-0.1,0c-0.1,0-0.2,0-0.4,0c0,0,0,0,0,0c0,0,0,0,0,0c-0.1,0-0.2,0.1-0.3,0.1
		c0,0,0,0-0.1,0c-0.1,0.1-0.2,0.1-0.3,0.2c0,0,0,0,0,0c-0.1,0.1-0.1,0.1-0.2,0.2c0,0,0,0.1-0.1,0.1c0,0,0,0.1-0.1,0.1
		c0,0.1,0,0.1-0.1,0.2c0,0,0,0,0,0.1l-3.2,10.3c0,0,0,0,0,0c0,0.1-0.1,0.3-0.1,0.4c0,0,0,0.1,0,0.1c0,0.1,0,0.3,0.1,0.4L88.1,91
		l-4.5,17.3c0,0,0,0,0,0.1c0,0.1,0,0.1,0,0.2c0,0,0,0.1,0,0.1c0,0.1,0,0.1,0,0.2c0,0,0,0.1,0,0.1l0,0c0,0,3.6,16.7,3.9,17.8
		c0.2,0.7,0.4,1.8,19.5,12.9l5.2,6.4c0.2,0.2,0.5,0.4,0.8,0.5l9.2,2.3c0.1,0,0.2,0,0.2,0.1l0,0c0,0,0,0,0,0c0.1,0,0.2,0,0.2,0
		c0,0,0,0,0,0c0,0,0,0,0,0c0.1,0,0.2,0,0.2,0c0,0,0,0,0,0l0,0c0.1,0,0.2,0,0.2-0.1l9.2-2.3c0.3-0.1,0.6-0.3,0.8-0.5l5.2-6.4
		c19.1-11.2,19.4-12.2,19.5-12.9c0.3-1.1,3.9-17.8,3.9-17.8l0,0c0,0,0-0.1,0-0.1C162.1,108.9,162.1,108.8,162.1,108.8z M134.7,115.3
		l3.7-3.7l3.9-0.2l-3.1,5.1l-5,1L134.7,115.3z M129,133.7l5.7,4.5l-5.6,2.3l-4.1-2.7L129,133.7z M133.3,120.7l7.1-1.4
		c0.4-0.1,0.8-0.3,1-0.7l4.5-7.5l12.3-0.7l-5.6,11.4l-15.8,8.4h-6L133.3,120.7z M144.9,108.2C144.9,108.2,144.9,108.2,144.9,108.2
		l-7.3,0.4c-0.4,0-0.7,0.2-1,0.4l-0.5,0.5l4.7-18l14,0.9l3.9,15L144.9,108.2z M158.8,77l-13.1,7.7l11.1-14.1L158.8,77z M157.8,81.1
		l-2.9,8.3l-10.2-0.6L157.8,81.1z M110.8,85.1c0.3,0.2,0.6,0.3,0.9,0.3h11h0.1h11c0.3,0,0.7-0.1,0.9-0.3l16.7-13l0.6-0.3l-13.6,17.3
		c0,0,0,0,0,0c-0.1,0.1-0.2,0.2-0.2,0.4c0,0,0,0,0,0c0,0,0,0,0,0.1c0,0,0,0,0,0.1c0,0,0,0,0,0l-10.7,41.3l-4.7,4.9l-4.7-4.9
		l-10.7-41.3c0,0,0,0,0,0c0,0,0,0,0-0.1c0,0,0,0,0-0.1c-0.1-0.2-0.1-0.3-0.2-0.4c0,0,0,0,0,0L93.5,71.7l0.6,0.3L110.8,85.1z
		 M111.5,117.5l-5-1l-3.1-5.1l3.9,0.2l3.7,3.7L111.5,117.5z M99.7,111.1l4.5,7.5c0.2,0.4,0.6,0.6,1,0.7l7.1,1.4l2.5,9.5h-6L93,121.8
		l-5.6-11.4L99.7,111.1z M116.6,133.7l3.9,4l-4.1,2.7l-5.6-2.3L116.6,133.7z M90.7,89.4l-2.9-8.3l13.1,7.7L90.7,89.4z M88.8,70.6
		l11.1,14.1L86.8,77L88.8,70.6z M90.8,92.4l14-0.9l4.7,18l-0.5-0.5c-0.3-0.3-0.6-0.4-1-0.4l-7.3-0.4c0,0,0,0,0,0l-13.8-0.8
		L90.8,92.4z M89.1,120.6l1.4,3c0.1,0.3,0.4,0.5,0.6,0.7l16.5,8.8c0.2,0.1,0.5,0.2,0.7,0.2h4l-4.6,3.6c-7.8-4.6-16.1-9.7-17.5-11
		C90.1,125,89.6,123,89.1,120.6z M131.4,143.9l-8.6,2.2l-8.6-2.2l-1.3-1.6l3.2,1.3c0.2,0.1,0.4,0.1,0.6,0.1c0.3,0,0.6-0.1,0.8-0.3
		l5.3-3.6l5.3,3.6c0.2,0.2,0.5,0.3,0.8,0.3c0.2,0,0.4,0,0.6-0.1l3.2-1.3L131.4,143.9z M137.8,136.8l-4.6-3.6h4
		c0.2,0,0.5-0.1,0.7-0.2l16.5-8.8c0.3-0.1,0.5-0.4,0.6-0.7l1.4-3c-0.5,2.4-1,4.5-1.2,5.3C153.9,127.2,145.6,132.2,137.8,136.8z"/>
</g>
<g id="Calque_5">
	<g>
		<g>
			<path fill="#FFFFFF" d="M217.4,112.3h9.3v6.6c-1.7,1.4-5,3.7-9.7,3.7c-8.2,0-14.7-6.9-14.7-15.1c0-8.2,6.4-15.1,14.6-15.1
				c7.6,0,11.4,5.4,11.4,5.4v-5.2c-5.4-4.2-11.4-3.8-11.4-3.8c-10.3,0-18.6,8.4-18.6,18.7s8.4,18.7,18.7,18.7c0,0,7.8,0.4,13.6-5.9
				v-11.6h-12.1L217.4,112.3z"/>
			<path fill="#FFFFFF" d="M269.9,99.7c0-8.2-6-10-12.8-10h-10.6v35.8h4v-15.8h6.6c0.3,0,0.6,0,0.9,0l10.9,16.3l3-2.5l-9.8-14.3
				C266.6,108.3,269.9,105.7,269.9,99.7z M257.1,106.1h-6.6V93.2h6.6c4.9,0,8.8,1.4,8.8,6.5C265.9,104.7,262,106.1,257.1,106.1z"/>
			<polygon fill="#FFFFFF" points="307,93.1 308.2,89.5 286.3,89.5 286.3,125.4 307,125.4 308.2,121.9 290.2,121.9 290.2,109.3 
				303.9,109.3 305.1,105.8 290.2,105.8 290.2,93.1 			"/>
			<polygon fill="#FFFFFF" points="333.9,105.4 323.2,89.2 319.3,90.4 331.9,109.3 331.9,125.4 335.9,125.4 335.9,109.3 348.5,90.4 
				344.6,89.2 			"/>
			<path fill="#FFFFFF" d="M380.3,88.8c-10.3,0-18.7,8.4-18.7,18.7s8.4,18.7,18.7,18.7c0,0,5.6,0.2,10.8-3.5v-5
				c-0.4,0.5-4.2,4.9-10.8,4.9c-8.2,0-14.7-6.9-14.7-15.1c0-8.2,6.5-15.1,14.7-15.1c7,0,10.9,5,10.9,5v-5
				C385.9,88.6,380.3,88.8,380.3,88.8z"/>
			<path fill="#FFFFFF" d="M404.1,125.4h3.9l3.4-8h16.1l3.4,8h3.9l-15.3-36.3L404.1,125.4z M412.8,113.9l6.5-15.6l6.6,15.6H412.8z"
				/>
			<polygon fill="#FFFFFF" points="447.8,89.7 446.6,93.2 458.9,93.2 458.9,125.4 462.8,125.4 462.8,93.2 473.8,93.2 475,89.7 			
				"/>
		</g>
	</g>
</g>
</svg>
